<svg width="558" height="567" viewBox="0 0 558 567" fill="none" xmlns="http://www.w3.org/2000/svg">
<path d="M254.595 499L162.795 377.2L69.7953 499H5.59531L130.995 336.4L11.5953 181H75.7953L163.395 295.6L250.395 181H313.395L193.395 336.4L319.995 499H254.595Z" fill="#373737"/>
<path d="M303 181.144H351.189V412.639L514.329 181.144H558V499H509.811V267.505L347.173 499H303V181.144ZM427.488 139.763C402.724 139.763 383.482 132.766 369.762 118.772C356.041 104.379 349.014 83.7879 348.679 57H381.307C381.642 71.7933 385.825 83.7879 393.856 92.9837C402.222 101.78 413.266 106.178 426.986 106.178C440.707 106.178 451.75 101.78 460.116 92.9837C468.482 83.7879 472.833 71.7933 473.167 57H506.799C506.465 83.7879 499.27 104.379 485.215 118.772C471.159 132.766 451.917 139.763 427.488 139.763Z" fill="#373737"/>
</svg>
