<svg width="226" height="225" viewBox="0 0 226 225" fill="none" xmlns="http://www.w3.org/2000/svg">
<circle cx="113.025" cy="112.463" r="107.022" stroke="#568BD7" stroke-width="10.1926"/>
<path d="M15.4668 112.463H210.582" stroke="#568BD7" stroke-width="2.91217"/>
<path d="M22.7473 103.726L14.0107 112.463L22.7473 121.199" stroke="#568BD7" stroke-width="2.91217"/>
<path d="M203.302 103.726L212.039 112.463L203.302 121.199" stroke="#568BD7" stroke-width="2.91217"/>
<path d="M71.9455 102.323V108.115H70.137V104H54.123L54.0968 108.115H52.2883L52.3145 102.323H53.2318C54.4375 102.253 55.2762 101.3 55.748 99.4657C56.2197 97.6136 56.508 94.9926 56.6129 91.6029L56.8226 85.6533H69.1935V102.323H71.9455ZM58.3427 91.7863C58.2553 94.582 58.0369 96.8885 57.6875 98.7057C57.3555 100.505 56.7876 101.711 55.9839 102.323H67.2802V87.3307H58.5L58.3427 91.7863ZM75.4561 90.2138H77.317V101.169L86.5166 90.2138H88.1678V104H86.3069V93.0444L77.1335 104H75.4561V90.2138ZM98.2447 90.1089C100.044 90.1089 101.425 90.5632 102.386 91.4718C103.347 92.363 103.827 93.6909 103.827 95.4557V104H102.045V101.851C101.626 102.567 101.005 103.126 100.184 103.528C99.3805 103.93 98.4194 104.131 97.3012 104.131C95.7635 104.131 94.5404 103.764 93.6318 103.03C92.7232 102.296 92.2689 101.327 92.2689 100.121C92.2689 98.9503 92.6883 98.0067 93.527 97.2904C94.3832 96.574 95.7373 96.2158 97.5895 96.2158H101.966V95.3771C101.966 94.1889 101.634 93.289 100.971 92.6775C100.307 92.0484 99.3368 91.7339 98.0613 91.7339C97.1876 91.7339 96.3489 91.8824 95.5451 92.1795C94.7414 92.4591 94.0512 92.8522 93.4746 93.3589L92.6359 91.9698C93.3348 91.3757 94.1735 90.9214 95.152 90.6069C96.1305 90.2749 97.1614 90.1089 98.2447 90.1089ZM97.5895 102.663C98.6379 102.663 99.5377 102.427 100.289 101.956C101.04 101.466 101.6 100.767 101.966 99.8589V97.6049H97.6419C95.283 97.6049 94.1036 98.4261 94.1036 100.069C94.1036 100.872 94.4094 101.51 95.0209 101.982C95.6325 102.436 96.4887 102.663 97.5895 102.663ZM124.192 90.2138V104H122.489V93.0968L116.906 102.323H116.067L110.485 93.0706V104H108.781V90.2138H110.668L116.513 100.147L122.463 90.2138H124.192ZM141.544 97.6835H130.012C130.117 99.1163 130.667 100.278 131.663 101.169C132.659 102.043 133.917 102.48 135.437 102.48C136.293 102.48 137.08 102.331 137.796 102.034C138.513 101.72 139.133 101.265 139.657 100.671L140.705 101.877C140.094 102.611 139.325 103.17 138.399 103.554C137.49 103.939 136.486 104.131 135.385 104.131C133.97 104.131 132.712 103.834 131.611 103.24C130.527 102.628 129.68 101.79 129.068 100.724C128.457 99.6579 128.151 98.4523 128.151 97.1069C128.151 95.7615 128.439 94.5558 129.016 93.49C129.61 92.4241 130.414 91.5941 131.427 91.0001C132.458 90.406 133.611 90.1089 134.887 90.1089C136.162 90.1089 137.307 90.406 138.32 91.0001C139.334 91.5941 140.129 92.4241 140.705 93.49C141.282 94.5383 141.57 95.744 141.57 97.1069L141.544 97.6835ZM134.887 91.7077C133.559 91.7077 132.441 92.1358 131.532 92.992C130.641 93.8307 130.134 94.9315 130.012 96.2944H139.788C139.666 94.9315 139.15 93.8307 138.242 92.992C137.351 92.1358 136.232 91.7077 134.887 91.7077ZM154.773 91.865H149.557V104H147.696V91.865H142.481V90.2138H154.773V91.865ZM164.566 90.1089C165.859 90.1089 167.03 90.406 168.078 91.0001C169.127 91.5767 169.948 92.3979 170.542 93.4638C171.136 94.5296 171.433 95.744 171.433 97.1069C171.433 98.4873 171.136 99.7104 170.542 100.776C169.948 101.842 169.127 102.672 168.078 103.266C167.047 103.843 165.877 104.131 164.566 104.131C163.448 104.131 162.434 103.904 161.526 103.45C160.635 102.978 159.901 102.296 159.324 101.405V109.085H157.463V90.2138H159.246V92.9396C159.805 92.031 160.539 91.332 161.447 90.8428C162.373 90.3536 163.413 90.1089 164.566 90.1089ZM164.435 102.48C165.396 102.48 166.27 102.261 167.056 101.825C167.842 101.37 168.454 100.733 168.891 99.9113C169.345 99.0901 169.572 98.1553 169.572 97.1069C169.572 96.0585 169.345 95.1324 168.891 94.3287C168.454 93.5074 167.842 92.8697 167.056 92.4154C166.27 91.9611 165.396 91.7339 164.435 91.7339C163.457 91.7339 162.574 91.9611 161.788 92.4154C161.019 92.8697 160.408 93.5074 159.953 94.3287C159.516 95.1324 159.298 96.0585 159.298 97.1069C159.298 98.1553 159.516 99.0901 159.953 99.9113C160.408 100.733 161.019 101.37 161.788 101.825C162.574 102.261 163.457 102.48 164.435 102.48Z" fill="#568BD7"/>
</svg>
