<svg width="39" height="38" viewBox="0 0 39 38" fill="none" xmlns="http://www.w3.org/2000/svg">
<path d="M19.1085 3.42349C24.2107 3.42349 24.815 3.4428 26.8299 3.53421C28.6929 3.61876 29.7047 3.92828 30.3781 4.18841C31.27 4.53308 31.9066 4.94488 32.5752 5.60971C33.2439 6.27454 33.658 6.90755 34.0046 7.79434C34.2663 8.46393 34.5776 9.46996 34.6626 11.3224C34.7545 13.3259 34.7739 13.9268 34.7739 19C34.7739 24.0733 34.7545 24.6742 34.6626 26.6776C34.5776 28.5301 34.2663 29.5361 34.0046 30.2057C33.658 31.0925 33.2439 31.7255 32.5752 32.3904C31.9066 33.0552 31.27 33.467 30.3781 33.8116C29.7047 34.0718 28.6929 34.3813 26.8299 34.4659C24.8153 34.5573 24.211 34.5766 19.1085 34.5766C14.0059 34.5766 13.4016 34.5573 11.387 34.4659C9.52396 34.3813 8.51218 34.0718 7.83885 33.8116C6.94692 33.467 6.3103 33.0552 5.64167 32.3904C4.97304 31.7255 4.55889 31.0925 4.21233 30.2057C3.95064 29.5361 3.63934 28.5301 3.55432 26.6777C3.46238 24.6742 3.44297 24.0733 3.44297 19C3.44297 13.9268 3.46238 13.3259 3.55432 11.3224C3.63934 9.46996 3.95064 8.46393 4.21233 7.79434C4.55889 6.90755 4.97304 6.27454 5.64167 5.60971C6.3103 4.94488 6.94692 4.53308 7.83885 4.18841C8.51218 3.92828 9.52396 3.61876 11.3869 3.53421C13.4019 3.4428 14.0062 3.42349 19.1085 3.42349ZM19.1085 0C13.9189 0 13.2682 0.021872 11.2301 0.114338C9.19613 0.206652 7.80715 0.527794 6.59163 0.997513C5.33508 1.48307 4.26944 2.13274 3.20714 3.18901C2.14485 4.24528 1.49146 5.30486 1.00313 6.55428C0.530731 7.76289 0.207757 9.144 0.114915 11.1664C0.021921 13.1929 0 13.8399 0 19C0 24.1602 0.021921 24.8072 0.114915 26.8337C0.207757 28.8561 0.530731 30.2372 1.00313 31.4458C1.49146 32.6951 2.14485 33.7548 3.20714 34.8111C4.26944 35.8673 5.33508 36.517 6.59163 37.0026C7.80715 37.4723 9.19613 37.7934 11.2301 37.8857C13.2682 37.9782 13.9189 38 19.1085 38C24.298 38 24.9488 37.9782 26.9868 37.8857C29.0208 37.7934 30.4098 37.4723 31.6253 37.0026C32.8818 36.517 33.9475 35.8673 35.0098 34.8111C36.0721 33.7548 36.7254 32.6952 37.2138 31.4458C37.6862 30.2372 38.0092 28.8561 38.102 26.8337C38.195 24.8072 38.217 24.1602 38.217 19C38.217 13.8399 38.195 13.1929 38.102 11.1664C38.0092 9.144 37.6862 7.76289 37.2138 6.55428C36.7254 5.30486 36.0721 4.24528 35.0098 3.18901C33.9475 2.13274 32.8818 1.48307 31.6253 0.997513C30.4098 0.527794 29.0208 0.206652 26.9868 0.114338C24.9488 0.021872 24.298 0 19.1085 0ZM19.1085 9.24325C13.6892 9.24325 9.29595 13.6115 9.29595 19C9.29595 24.3885 13.6892 28.7568 19.1085 28.7568C24.5277 28.7568 28.921 24.3885 28.921 19C28.921 13.6115 24.5277 9.24325 19.1085 9.24325ZM19.1085 25.3334C15.5907 25.3334 12.7389 22.4978 12.7389 19C12.7389 15.5023 15.5907 12.6667 19.1085 12.6667C22.6262 12.6667 25.478 15.5023 25.478 19C25.478 22.4978 22.6262 25.3334 19.1085 25.3334ZM31.6016 8.85777C31.6016 10.117 30.575 11.1378 29.3086 11.1378C28.0422 11.1378 27.0156 10.117 27.0156 8.85777C27.0156 7.59855 28.0422 6.57781 29.3086 6.57781C30.575 6.57781 31.6016 7.59855 31.6016 8.85777Z" fill="#568BD7"/>
</svg>
