<svg width="191" height="40" viewBox="0 0 191 40" fill="none" xmlns="http://www.w3.org/2000/svg">
<path d="M46.0817 10.6768H51.0579V28.1241H61.8396V32.1787H46.0817V10.6768ZM80.35 23.9772C80.35 24.0387 80.3193 24.4687 80.2579 25.2674H67.756C67.9813 26.2913 68.5137 27.1002 69.3533 27.694C70.1929 28.2879 71.2373 28.5848 72.4864 28.5848C73.3465 28.5848 74.1042 28.4619 74.7595 28.2162C75.4353 27.95 76.0599 27.5404 76.6332 26.9875L79.1828 29.7521C77.6264 31.5337 75.3534 32.4244 72.3636 32.4244C70.5001 32.4244 68.8516 32.0661 67.4181 31.3493C65.9847 30.6121 64.8788 29.5985 64.1007 28.3084C63.3225 27.0182 62.9334 25.5541 62.9334 23.9158C62.9334 22.298 63.3123 20.8441 64.07 19.554C64.8481 18.2434 65.9027 17.2297 67.2338 16.513C68.5854 15.7758 70.0905 15.4072 71.7492 15.4072C73.367 15.4072 74.8312 15.7553 76.1418 16.4516C77.4524 17.1478 78.4763 18.1512 79.2135 19.4618C79.9712 20.752 80.35 22.2571 80.35 23.9772ZM71.7799 19.0318C70.6946 19.0318 69.7833 19.339 69.0461 19.9533C68.3089 20.5677 67.8584 21.4073 67.6946 22.4721H75.8346C75.6708 21.4277 75.2203 20.5984 74.483 19.984C73.7458 19.3492 72.8448 19.0318 71.7799 19.0318ZM91.4038 32.4244C89.6632 32.4244 88.0966 32.0661 86.7041 31.3493C85.3321 30.6121 84.257 29.5985 83.4788 28.3084C82.7007 27.0182 82.3116 25.5541 82.3116 23.9158C82.3116 22.2776 82.7007 20.8134 83.4788 19.5233C84.257 18.2332 85.3321 17.2297 86.7041 16.513C88.0966 15.7758 89.6632 15.4072 91.4038 15.4072C93.1445 15.4072 94.7008 15.7758 96.0728 16.513C97.4449 17.2297 98.52 18.2332 99.2981 19.5233C100.076 20.8134 100.465 22.2776 100.465 23.9158C100.465 25.5541 100.076 27.0182 99.2981 28.3084C98.52 29.5985 97.4449 30.6121 96.0728 31.3493C94.7008 32.0661 93.1445 32.4244 91.4038 32.4244ZM91.4038 28.4927C92.6325 28.4927 93.6359 28.0831 94.4141 27.264C95.2128 26.4244 95.6121 25.3083 95.6121 23.9158C95.6121 22.5233 95.2128 21.4175 94.4141 20.5984C93.6359 19.7588 92.6325 19.339 91.4038 19.339C90.1752 19.339 89.1615 19.7588 88.3628 20.5984C87.5642 21.4175 87.1649 22.5233 87.1649 23.9158C87.1649 25.3083 87.5642 26.4244 88.3628 27.264C89.1615 28.0831 90.1752 28.4927 91.4038 28.4927ZM112.705 10.6768H122.473C124.808 10.6768 126.866 11.1273 128.648 12.0283C130.45 12.9089 131.842 14.158 132.825 15.7758C133.829 17.3936 134.33 19.2775 134.33 21.4277C134.33 23.5779 133.829 25.4619 132.825 27.0797C131.842 28.6974 130.45 29.9568 128.648 30.8579C126.866 31.7384 124.808 32.1787 122.473 32.1787H112.705V10.6768ZM122.228 28.0933C124.378 28.0933 126.088 27.4995 127.357 26.3117C128.648 25.1035 129.293 23.4755 129.293 21.4277C129.293 19.3799 128.648 17.7622 127.357 16.5744C126.088 15.3662 124.378 14.7621 122.228 14.7621H117.682V28.0933H122.228ZM145.609 32.4244C143.868 32.4244 142.301 32.0661 140.909 31.3493C139.537 30.6121 138.462 29.5985 137.684 28.3084C136.906 27.0182 136.516 25.5541 136.516 23.9158C136.516 22.2776 136.906 20.8134 137.684 19.5233C138.462 18.2332 139.537 17.2297 140.909 16.513C142.301 15.7758 143.868 15.4072 145.609 15.4072C147.349 15.4072 148.906 15.7758 150.278 16.513C151.65 17.2297 152.725 18.2332 153.503 19.5233C154.281 20.8134 154.67 22.2776 154.67 23.9158C154.67 25.5541 154.281 27.0182 153.503 28.3084C152.725 29.5985 151.65 30.6121 150.278 31.3493C148.906 32.0661 147.349 32.4244 145.609 32.4244ZM145.609 28.4927C146.837 28.4927 147.841 28.0831 148.619 27.264C149.418 26.4244 149.817 25.3083 149.817 23.9158C149.817 22.5233 149.418 21.4175 148.619 20.5984C147.841 19.7588 146.837 19.339 145.609 19.339C144.38 19.339 143.366 19.7588 142.568 20.5984C141.769 21.4175 141.37 22.5233 141.37 23.9158C141.37 25.3083 141.769 26.4244 142.568 27.264C143.366 28.0831 144.38 28.4927 145.609 28.4927ZM165.86 32.4244C164.099 32.4244 162.511 32.0661 161.098 31.3493C159.706 30.6121 158.61 29.5985 157.812 28.3084C157.034 27.0182 156.645 25.5541 156.645 23.9158C156.645 22.2776 157.034 20.8134 157.812 19.5233C158.61 18.2332 159.706 17.2297 161.098 16.513C162.511 15.7758 164.099 15.4072 165.86 15.4072C167.6 15.4072 169.116 15.7758 170.406 16.513C171.716 17.2297 172.669 18.2639 173.262 19.6154L169.546 21.612C168.686 20.0967 167.447 19.339 165.829 19.339C164.58 19.339 163.546 19.7485 162.727 20.5677C161.907 21.3868 161.498 22.5028 161.498 23.9158C161.498 25.3288 161.907 26.4449 162.727 27.264C163.546 28.0831 164.58 28.4927 165.829 28.4927C167.467 28.4927 168.706 27.735 169.546 26.2196L173.262 28.2469C172.669 29.5575 171.716 30.5814 170.406 31.3186C169.116 32.0558 167.6 32.4244 165.86 32.4244ZM181.581 32.4244C180.209 32.4244 178.868 32.2606 177.557 31.933C176.247 31.5848 175.202 31.1548 174.424 30.6429L176.021 27.2025C176.759 27.6735 177.649 28.0626 178.694 28.3698C179.738 28.6565 180.762 28.7998 181.766 28.7998C183.793 28.7998 184.807 28.2981 184.807 27.2947C184.807 26.8237 184.53 26.4858 183.977 26.281C183.424 26.0763 182.574 25.9022 181.428 25.7588C180.076 25.5541 178.96 25.3186 178.08 25.0523C177.199 24.7861 176.431 24.3151 175.776 23.6394C175.141 22.9636 174.824 22.0011 174.824 20.752C174.824 19.7076 175.12 18.7861 175.714 17.9874C176.329 17.1683 177.209 16.5335 178.356 16.083C179.523 15.6324 180.895 15.4072 182.472 15.4072C183.639 15.4072 184.796 15.5403 185.943 15.8065C187.11 16.0522 188.073 16.4004 188.831 16.8509L187.233 20.2605C185.779 19.4414 184.192 19.0318 182.472 19.0318C181.448 19.0318 180.68 19.1751 180.168 19.4618C179.656 19.7485 179.4 20.1171 179.4 20.5677C179.4 21.0796 179.677 21.438 180.23 21.6428C180.783 21.8475 181.663 22.0421 182.871 22.2264C184.223 22.4516 185.329 22.6974 186.189 22.9636C187.049 23.2093 187.796 23.6701 188.431 24.3459C189.066 25.0216 189.383 25.9636 189.383 27.1718C189.383 28.1957 189.076 29.107 188.462 29.9056C187.848 30.7043 186.947 31.3289 185.759 31.7794C184.592 32.2094 183.199 32.4244 181.581 32.4244Z" fill="#568BD7"/>
<path d="M14.1761 1L3.14874 27.9365C2.7445 28.9129 2.58843 29.9733 2.69433 31.0239C2.80023 32.0745 3.16484 33.083 3.75592 33.9602C4.34699 34.8374 5.14633 35.5562 6.08325 36.0532C7.02017 36.5502 8.06581 36.81 9.12772 36.8097H24.7955C25.6431 36.8114 26.4826 36.6466 27.266 36.3248C28.0494 36.0031 28.7612 35.5307 29.3605 34.9348C29.9599 34.3388 30.435 33.6311 30.7585 32.8522C31.0821 32.0732 31.2478 31.2384 31.2462 30.3956V30.3956C31.2478 29.5529 31.0821 28.718 30.7585 27.9391C30.435 27.1602 29.9599 26.4524 29.3605 25.8565C28.7612 25.2606 28.0494 24.7882 27.266 24.4664C26.4826 24.1447 25.6431 23.9799 24.7955 23.9816H11.4734" stroke="#568BD7" stroke-width="3.8028" stroke-miterlimit="10"/>
<path d="M0 11.6851H24.7956C25.6438 11.6851 26.4836 11.8514 27.2671 12.1745C28.0506 12.4976 28.7622 12.9712 29.3614 13.5682C29.9606 14.1651 30.4355 14.8737 30.7589 15.6533C31.0823 16.433 31.2479 17.2684 31.2463 18.1118V20.0892" stroke="#568BD7" stroke-width="3.8028" stroke-miterlimit="10"/>
</svg>
