<svg width="202" height="40" viewBox="0 0 202 40" fill="none" xmlns="http://www.w3.org/2000/svg">
<path d="M46.49 11H51.35V28.04H61.88V32H46.49V11ZM79.9583 23.99C79.9583 24.05 79.9283 24.47 79.8683 25.25H67.6583C67.8783 26.25 68.3983 27.04 69.2183 27.62C70.0383 28.2 71.0583 28.49 72.2783 28.49C73.1183 28.49 73.8583 28.37 74.4983 28.13C75.1583 27.87 75.7683 27.47 76.3283 26.93L78.8183 29.63C77.2983 31.37 75.0783 32.24 72.1583 32.24C70.3383 32.24 68.7283 31.89 67.3283 31.19C65.9283 30.47 64.8483 29.48 64.0883 28.22C63.3283 26.96 62.9483 25.53 62.9483 23.93C62.9483 22.35 63.3183 20.93 64.0583 19.67C64.8183 18.39 65.8483 17.4 67.1483 16.7C68.4683 15.98 69.9383 15.62 71.5583 15.62C73.1383 15.62 74.5683 15.96 75.8483 16.64C77.1283 17.32 78.1283 18.3 78.8483 19.58C79.5883 20.84 79.9583 22.31 79.9583 23.99ZM71.5883 19.16C70.5283 19.16 69.6383 19.46 68.9183 20.06C68.1983 20.66 67.7583 21.48 67.5983 22.52H75.5483C75.3883 21.5 74.9483 20.69 74.2283 20.09C73.5083 19.47 72.6283 19.16 71.5883 19.16ZM90.7541 32.24C89.0541 32.24 87.5241 31.89 86.1641 31.19C84.8241 30.47 83.7741 29.48 83.0141 28.22C82.2541 26.96 81.8741 25.53 81.8741 23.93C81.8741 22.33 82.2541 20.9 83.0141 19.64C83.7741 18.38 84.8241 17.4 86.1641 16.7C87.5241 15.98 89.0541 15.62 90.7541 15.62C92.4541 15.62 93.9741 15.98 95.3141 16.7C96.6541 17.4 97.7041 18.38 98.4641 19.64C99.2241 20.9 99.6041 22.33 99.6041 23.93C99.6041 25.53 99.2241 26.96 98.4641 28.22C97.7041 29.48 96.6541 30.47 95.3141 31.19C93.9741 31.89 92.4541 32.24 90.7541 32.24ZM90.7541 28.4C91.9541 28.4 92.9341 28 93.6941 27.2C94.4741 26.38 94.8641 25.29 94.8641 23.93C94.8641 22.57 94.4741 21.49 93.6941 20.69C92.9341 19.87 91.9541 19.46 90.7541 19.46C89.5541 19.46 88.5641 19.87 87.7841 20.69C87.0041 21.49 86.6141 22.57 86.6141 23.93C86.6141 25.29 87.0041 26.38 87.7841 27.2C88.5641 28 89.5541 28.4 90.7541 28.4ZM120.648 11C122.508 11 124.118 11.31 125.478 11.93C126.858 12.55 127.918 13.43 128.658 14.57C129.398 15.71 129.768 17.06 129.768 18.62C129.768 20.16 129.398 21.51 128.658 22.67C127.918 23.81 126.858 24.69 125.478 25.31C124.118 25.91 122.508 26.21 120.648 26.21H116.418V32H111.558V11H120.648ZM120.378 22.25C121.838 22.25 122.948 21.94 123.708 21.32C124.468 20.68 124.848 19.78 124.848 18.62C124.848 17.44 124.468 16.54 123.708 15.92C122.948 15.28 121.838 14.96 120.378 14.96H116.418V22.25H120.378ZM137.378 17.99C137.938 17.21 138.688 16.62 139.628 16.22C140.588 15.82 141.688 15.62 142.928 15.62V19.94C142.408 19.9 142.058 19.88 141.878 19.88C140.538 19.88 139.488 20.26 138.728 21.02C137.968 21.76 137.588 22.88 137.588 24.38V32H132.908V15.86H137.378V17.99ZM153.244 32.24C151.544 32.24 150.014 31.89 148.654 31.19C147.314 30.47 146.264 29.48 145.504 28.22C144.744 26.96 144.364 25.53 144.364 23.93C144.364 22.33 144.744 20.9 145.504 19.64C146.264 18.38 147.314 17.4 148.654 16.7C150.014 15.98 151.544 15.62 153.244 15.62C154.944 15.62 156.464 15.98 157.804 16.7C159.144 17.4 160.194 18.38 160.954 19.64C161.714 20.9 162.094 22.33 162.094 23.93C162.094 25.53 161.714 26.96 160.954 28.22C160.194 29.48 159.144 30.47 157.804 31.19C156.464 31.89 154.944 32.24 153.244 32.24ZM153.244 28.4C154.444 28.4 155.424 28 156.184 27.2C156.964 26.38 157.354 25.29 157.354 23.93C157.354 22.57 156.964 21.49 156.184 20.69C155.424 19.87 154.444 19.46 153.244 19.46C152.044 19.46 151.054 19.87 150.274 20.69C149.494 21.49 149.104 22.57 149.104 23.93C149.104 25.29 149.494 26.38 150.274 27.2C151.054 28 152.044 28.4 153.244 28.4ZM172.153 25.67L169.903 27.89V32H165.223V9.74H169.903V22.34L176.743 15.86H182.323L175.603 22.7L182.923 32H177.253L172.153 25.67ZM192.004 32.24C190.304 32.24 188.774 31.89 187.414 31.19C186.074 30.47 185.024 29.48 184.264 28.22C183.504 26.96 183.124 25.53 183.124 23.93C183.124 22.33 183.504 20.9 184.264 19.64C185.024 18.38 186.074 17.4 187.414 16.7C188.774 15.98 190.304 15.62 192.004 15.62C193.704 15.62 195.224 15.98 196.564 16.7C197.904 17.4 198.954 18.38 199.714 19.64C200.474 20.9 200.854 22.33 200.854 23.93C200.854 25.53 200.474 26.96 199.714 28.22C198.954 29.48 197.904 30.47 196.564 31.19C195.224 31.89 193.704 32.24 192.004 32.24ZM192.004 28.4C193.204 28.4 194.184 28 194.944 27.2C195.724 26.38 196.114 25.29 196.114 23.93C196.114 22.57 195.724 21.49 194.944 20.69C194.184 19.87 193.204 19.46 192.004 19.46C190.804 19.46 189.814 19.87 189.034 20.69C188.254 21.49 187.864 22.57 187.864 23.93C187.864 25.29 188.254 26.38 189.034 27.2C189.814 28 190.804 28.4 192.004 28.4Z" fill="#568BD7"/>
<path d="M14.176 1L3.14862 27.9365C2.74438 28.9129 2.58831 29.9733 2.69421 31.0239C2.80011 32.0745 3.16472 33.083 3.75579 33.9602C4.34687 34.8374 5.14621 35.5562 6.08313 36.0532C7.02005 36.5502 8.06569 36.81 9.1276 36.8097H24.7954C25.6429 36.8114 26.4825 36.6466 27.2659 36.3248C28.0493 36.0031 28.7611 35.5307 29.3604 34.9348C29.9598 34.3388 30.4348 33.6311 30.7584 32.8522C31.082 32.0732 31.2477 31.2384 31.246 30.3956V30.3956C31.2477 29.5529 31.082 28.718 30.7584 27.9391C30.4348 27.1602 29.9598 26.4524 29.3604 25.8565C28.7611 25.2606 28.0493 24.7882 27.2659 24.4664C26.4825 24.1447 25.6429 23.9799 24.7954 23.9816H11.4733" stroke="#568BD7" stroke-width="3.8028" stroke-miterlimit="10"/>
<path d="M0 11.6851H24.7956C25.6438 11.6851 26.4836 11.8514 27.2671 12.1745C28.0506 12.4976 28.7622 12.9712 29.3614 13.5682C29.9606 14.1651 30.4355 14.8737 30.7589 15.6533C31.0823 16.433 31.2479 17.2684 31.2463 18.1118V20.0892" stroke="#568BD7" stroke-width="3.8028" stroke-miterlimit="10"/>
</svg>
