<svg width="6412" height="1200" viewBox="0 0 6412 1200" fill="none" xmlns="http://www.w3.org/2000/svg">
<path d="M1443.57 279.91H1598.88V824.452H1935.39V951H1443.57V279.91ZM2513.11 695.027C2513.11 696.944 2512.15 710.366 2510.23 735.292H2120.04C2127.07 767.249 2143.69 792.495 2169.89 811.03C2196.1 829.565 2228.69 838.832 2267.68 838.832C2294.52 838.832 2318.17 834.997 2338.62 827.328C2359.72 819.019 2379.21 806.236 2397.1 788.98L2476.68 875.263C2428.1 930.867 2357.16 958.67 2263.85 958.67C2205.68 958.67 2154.23 947.485 2109.49 925.115C2064.76 902.106 2030.24 870.469 2005.95 830.204C1981.67 789.938 1969.52 744.24 1969.52 693.11C1969.52 642.618 1981.35 597.24 2005 556.974C2029.28 516.07 2062.2 484.432 2103.74 462.063C2145.93 439.054 2192.9 427.55 2244.67 427.55C2295.16 427.55 2340.86 438.415 2381.77 460.145C2422.67 481.876 2454.63 513.193 2477.64 554.098C2501.28 594.363 2513.11 641.34 2513.11 695.027ZM2245.63 540.676C2211.76 540.676 2183.31 550.263 2160.31 569.437C2137.3 588.611 2123.24 614.816 2118.12 648.051H2372.18C2367.07 615.455 2353 589.57 2330 570.396C2306.99 550.583 2278.86 540.676 2245.63 540.676ZM2858.1 958.67C2803.78 958.67 2754.88 947.485 2711.42 925.115C2668.6 902.106 2635.05 870.469 2610.76 830.204C2586.47 789.938 2574.33 744.24 2574.33 693.11C2574.33 641.979 2586.47 596.281 2610.76 556.015C2635.05 515.75 2668.6 484.432 2711.42 462.063C2754.88 439.054 2803.78 427.55 2858.1 427.55C2912.43 427.55 2961.01 439.054 3003.83 462.063C3046.65 484.432 3080.2 515.75 3104.49 556.015C3128.78 596.281 3140.92 641.979 3140.92 693.11C3140.92 744.24 3128.78 789.938 3104.49 830.204C3080.2 870.469 3046.65 902.106 3003.83 925.115C2961.01 947.485 2912.43 958.67 2858.1 958.67ZM2858.1 835.956C2896.45 835.956 2927.77 823.173 2952.06 797.608C2976.98 771.403 2989.45 736.571 2989.45 693.11C2989.45 649.648 2976.98 615.135 2952.06 589.57C2927.77 563.365 2896.45 550.263 2858.1 550.263C2819.76 550.263 2788.12 563.365 2763.19 589.57C2738.27 615.135 2725.8 649.648 2725.8 693.11C2725.8 736.571 2738.27 771.403 2763.19 797.608C2788.12 823.173 2819.76 835.956 2858.1 835.956ZM3813.43 279.91C3872.87 279.91 3924.32 289.816 3967.78 309.629C4011.88 329.443 4045.75 357.564 4069.4 393.995C4093.05 430.426 4104.87 473.567 4104.87 523.42C4104.87 572.633 4093.05 615.774 4069.4 652.844C4045.75 689.275 4011.88 717.397 3967.78 737.21C3924.32 756.384 3872.87 765.971 3813.43 765.971H3678.25V951H3522.94V279.91H3813.43ZM3804.8 639.422C3851.46 639.422 3886.93 629.516 3911.21 609.703C3935.5 589.25 3947.65 560.489 3947.65 523.42C3947.65 485.711 3935.5 456.95 3911.21 437.137C3886.93 416.684 3851.46 406.458 3804.8 406.458H3678.25V639.422H3804.8ZM4348.05 503.287C4365.95 478.361 4389.92 459.506 4419.96 446.724C4450.63 433.941 4485.79 427.55 4525.41 427.55V565.602C4508.79 564.324 4497.61 563.685 4491.86 563.685C4449.04 563.685 4415.48 575.829 4391.19 600.116C4366.91 623.764 4354.76 659.555 4354.76 707.49V951H4205.21V435.219H4348.05V503.287ZM4855.09 958.67C4800.76 958.67 4751.87 947.485 4708.4 925.115C4665.58 902.106 4632.03 870.469 4607.74 830.204C4583.45 789.938 4571.31 744.24 4571.31 693.11C4571.31 641.979 4583.45 596.281 4607.74 556.015C4632.03 515.75 4665.58 484.432 4708.4 462.063C4751.87 439.054 4800.76 427.55 4855.09 427.55C4909.41 427.55 4957.99 439.054 5000.81 462.063C5043.63 484.432 5077.18 515.75 5101.47 556.015C5125.76 596.281 5137.9 641.979 5137.9 693.11C5137.9 744.24 5125.76 789.938 5101.47 830.204C5077.18 870.469 5043.63 902.106 5000.81 925.115C4957.99 947.485 4909.41 958.67 4855.09 958.67ZM4855.09 835.956C4893.43 835.956 4924.75 823.173 4949.04 797.608C4973.96 771.403 4986.43 736.571 4986.43 693.11C4986.43 649.648 4973.96 615.135 4949.04 589.57C4924.75 563.365 4893.43 550.263 4855.09 550.263C4816.74 550.263 4785.1 563.365 4760.17 589.57C4735.25 615.135 4722.78 649.648 4722.78 693.11C4722.78 736.571 4735.25 771.403 4760.17 797.608C4785.1 823.173 4816.74 835.956 4855.09 835.956ZM5459.33 748.714L5387.43 819.658V951H5237.87V239.644H5387.43V642.298L5606.01 435.219H5784.33L5569.58 653.803L5803.5 951H5622.31L5459.33 748.714ZM6093.72 958.67C6039.39 958.67 5990.5 947.485 5947.04 925.115C5904.22 902.106 5870.66 870.469 5846.37 830.204C5822.09 789.938 5809.94 744.24 5809.94 693.11C5809.94 641.979 5822.09 596.281 5846.37 556.015C5870.66 515.75 5904.22 484.432 5947.04 462.063C5990.5 439.054 6039.39 427.55 6093.72 427.55C6148.05 427.55 6196.62 439.054 6239.44 462.063C6282.26 484.432 6315.82 515.75 6340.1 556.015C6364.39 596.281 6376.54 641.979 6376.54 693.11C6376.54 744.24 6364.39 789.938 6340.1 830.204C6315.82 870.469 6282.26 902.106 6239.44 925.115C6196.62 947.485 6148.05 958.67 6093.72 958.67ZM6093.72 835.956C6132.07 835.956 6163.38 823.173 6187.67 797.608C6212.6 771.403 6225.06 736.571 6225.06 693.11C6225.06 649.648 6212.6 615.135 6187.67 589.57C6163.38 563.365 6132.07 550.263 6093.72 550.263C6055.37 550.263 6023.73 563.365 5998.81 589.57C5973.88 615.135 5961.42 649.648 5961.42 693.11C5961.42 736.571 5973.88 771.403 5998.81 797.608C6023.73 823.173 6055.37 835.956 6093.72 835.956Z" fill="black"/>
<path d="M439.936 23L97.7192 863.705C85.1743 894.179 80.3309 927.274 83.6174 960.065C86.9039 992.855 98.2189 1024.33 116.562 1051.71C134.905 1079.09 159.711 1101.52 188.787 1117.03C217.863 1132.55 250.313 1140.65 283.268 1140.64H769.492C795.796 1140.7 821.851 1135.55 846.162 1125.51C870.473 1115.47 892.563 1100.73 911.162 1082.13C929.762 1063.53 944.505 1041.44 954.547 1017.13C964.589 992.815 969.731 966.76 969.679 940.457V940.457C969.731 914.153 964.589 888.098 954.547 863.787C944.505 839.476 929.762 817.387 911.162 798.787C892.563 780.188 870.473 765.444 846.162 755.402C821.851 745.36 795.796 740.218 769.492 740.27H356.063" stroke="black" stroke-width="118.688" stroke-miterlimit="10"/>
<path d="M0 356.503H769.493C795.815 356.503 821.879 361.694 846.192 371.779C870.506 381.864 892.592 396.645 911.186 415.276C929.78 433.907 944.518 456.022 954.555 480.356C964.592 504.689 969.731 530.763 969.679 557.085V618.803" stroke="black" stroke-width="118.688" stroke-miterlimit="10"/>
</svg>
