<svg width="32" height="38" viewBox="0 0 32 38" fill="none" xmlns="http://www.w3.org/2000/svg">
<path d="M13.5606 1.40747L3.15897 26.8155C2.77767 27.7365 2.63045 28.7367 2.73035 29.7277C2.83024 30.7187 3.17416 31.67 3.7317 32.4974C4.28923 33.3248 5.04322 34.0029 5.92698 34.4717C6.81074 34.9405 7.79705 35.1856 8.79871 35.1852H23.5775C24.377 35.1868 25.1689 35.0314 25.9078 34.7279C26.6468 34.4244 27.3182 33.9788 27.8835 33.4167C28.4488 32.8546 28.897 32.187 29.2022 31.4523C29.5074 30.7175 29.6637 29.9301 29.6621 29.1351V29.1351C29.6637 28.3402 29.5074 27.5527 29.2022 26.818C28.897 26.0833 28.4488 25.4157 27.8835 24.8535C27.3182 24.2914 26.6468 23.8458 25.9078 23.5424C25.1689 23.2389 24.377 23.0835 23.5775 23.085H11.0113" stroke="#568BD7" stroke-width="4.22222" stroke-miterlimit="10"/>
<path d="M0.1875 11.4871H23.5761C24.3762 11.4871 25.1684 11.6439 25.9074 11.9487C26.6464 12.2535 27.3177 12.7003 27.8829 13.2633C28.448 13.8264 28.896 14.4948 29.201 15.2302C29.5061 15.9656 29.6623 16.7536 29.6608 17.5491V19.4144" stroke="#568BD7" stroke-width="4.22222" stroke-miterlimit="10"/>
</svg>
