<svg width="206" height="39" viewBox="0 0 206 39" fill="none" xmlns="http://www.w3.org/2000/svg">
<path d="M46.0817 10.6768H51.0579V28.1241H61.8396V32.1787H46.0817V10.6768ZM80.35 23.9772C80.35 24.0387 80.3193 24.4687 80.2579 25.2674H67.756C67.9813 26.2913 68.5137 27.1002 69.3533 27.694C70.1929 28.2879 71.2373 28.5848 72.4864 28.5848C73.3465 28.5848 74.1042 28.4619 74.7595 28.2162C75.4353 27.95 76.0599 27.5404 76.6332 26.9875L79.1828 29.7521C77.6264 31.5337 75.3534 32.4244 72.3636 32.4244C70.5001 32.4244 68.8516 32.0661 67.4181 31.3493C65.9847 30.6121 64.8788 29.5985 64.1007 28.3084C63.3225 27.0182 62.9334 25.5541 62.9334 23.9158C62.9334 22.298 63.3123 20.8441 64.07 19.554C64.8481 18.2434 65.9027 17.2297 67.2338 16.513C68.5854 15.7758 70.0905 15.4072 71.7492 15.4072C73.367 15.4072 74.8312 15.7553 76.1418 16.4516C77.4524 17.1478 78.4763 18.1512 79.2135 19.4618C79.9712 20.752 80.35 22.2571 80.35 23.9772ZM71.7799 19.0318C70.6946 19.0318 69.7833 19.339 69.0461 19.9533C68.3089 20.5677 67.8584 21.4073 67.6946 22.4721H75.8346C75.6708 21.4277 75.2203 20.5984 74.483 19.984C73.7458 19.3492 72.8448 19.0318 71.7799 19.0318ZM91.4038 32.4244C89.6632 32.4244 88.0966 32.0661 86.7041 31.3493C85.3321 30.6121 84.257 29.5985 83.4788 28.3084C82.7007 27.0182 82.3116 25.5541 82.3116 23.9158C82.3116 22.2776 82.7007 20.8134 83.4788 19.5233C84.257 18.2332 85.3321 17.2297 86.7041 16.513C88.0966 15.7758 89.6632 15.4072 91.4038 15.4072C93.1445 15.4072 94.7008 15.7758 96.0728 16.513C97.4449 17.2297 98.52 18.2332 99.2981 19.5233C100.076 20.8134 100.465 22.2776 100.465 23.9158C100.465 25.5541 100.076 27.0182 99.2981 28.3084C98.52 29.5985 97.4449 30.6121 96.0728 31.3493C94.7008 32.0661 93.1445 32.4244 91.4038 32.4244ZM91.4038 28.4927C92.6325 28.4927 93.6359 28.0831 94.4141 27.264C95.2128 26.4244 95.6121 25.3083 95.6121 23.9158C95.6121 22.5233 95.2128 21.4175 94.4141 20.5984C93.6359 19.7588 92.6325 19.339 91.4038 19.339C90.1752 19.339 89.1615 19.7588 88.3628 20.5984C87.5642 21.4175 87.1649 22.5233 87.1649 23.9158C87.1649 25.3083 87.5642 26.4244 88.3628 27.264C89.1615 28.0831 90.1752 28.4927 91.4038 28.4927ZM122.013 10.6768C123.917 10.6768 125.566 10.9942 126.958 11.629C128.371 12.2638 129.456 13.1648 130.214 14.3321C130.972 15.4993 131.351 16.8816 131.351 18.4789C131.351 20.0557 130.972 21.438 130.214 22.6257C129.456 23.7929 128.371 24.694 126.958 25.3288C125.566 25.9431 123.917 26.2503 122.013 26.2503H117.682V32.1787H112.705V10.6768H122.013ZM121.736 22.1957C123.231 22.1957 124.368 21.8782 125.146 21.2434C125.924 20.5881 126.313 19.6666 126.313 18.4789C126.313 17.2707 125.924 16.3492 125.146 15.7144C124.368 15.0591 123.231 14.7314 121.736 14.7314H117.682V22.1957H121.736ZM139.142 17.8338C139.716 17.0352 140.484 16.4311 141.446 16.0215C142.429 15.612 143.555 15.4072 144.825 15.4072V19.8304C144.292 19.7895 143.934 19.769 143.75 19.769C142.378 19.769 141.303 20.1581 140.525 20.9363C139.746 21.6939 139.357 22.8407 139.357 24.3766V32.1787H134.565V15.6529H139.142V17.8338ZM155.388 32.4244C153.647 32.4244 152.081 32.0661 150.688 31.3493C149.316 30.6121 148.241 29.5985 147.463 28.3084C146.685 27.0182 146.296 25.5541 146.296 23.9158C146.296 22.2776 146.685 20.8134 147.463 19.5233C148.241 18.2332 149.316 17.2297 150.688 16.513C152.081 15.7758 153.647 15.4072 155.388 15.4072C157.128 15.4072 158.685 15.7758 160.057 16.513C161.429 17.2297 162.504 18.2332 163.282 19.5233C164.06 20.8134 164.449 22.2776 164.449 23.9158C164.449 25.5541 164.06 27.0182 163.282 28.3084C162.504 29.5985 161.429 30.6121 160.057 31.3493C158.685 32.0661 157.128 32.4244 155.388 32.4244ZM155.388 28.4927C156.616 28.4927 157.62 28.0831 158.398 27.264C159.197 26.4244 159.596 25.3083 159.596 23.9158C159.596 22.5233 159.197 21.4175 158.398 20.5984C157.62 19.7588 156.616 19.339 155.388 19.339C154.159 19.339 153.145 19.7588 152.347 20.5984C151.548 21.4175 151.149 22.5233 151.149 23.9158C151.149 25.3083 151.548 26.4244 152.347 27.264C153.145 28.0831 154.159 28.4927 155.388 28.4927ZM174.748 25.6974L172.444 27.9705V32.1787H167.652V9.38663H172.444V22.2878L179.448 15.6529H185.161L178.28 22.6564L185.775 32.1787H179.97L174.748 25.6974ZM195.074 32.4244C193.333 32.4244 191.767 32.0661 190.374 31.3493C189.002 30.6121 187.927 29.5985 187.149 28.3084C186.371 27.0182 185.982 25.5541 185.982 23.9158C185.982 22.2776 186.371 20.8134 187.149 19.5233C187.927 18.2332 189.002 17.2297 190.374 16.513C191.767 15.7758 193.333 15.4072 195.074 15.4072C196.815 15.4072 198.371 15.7758 199.743 16.513C201.115 17.2297 202.19 18.2332 202.968 19.5233C203.746 20.8134 204.136 22.2776 204.136 23.9158C204.136 25.5541 203.746 27.0182 202.968 28.3084C202.19 29.5985 201.115 30.6121 199.743 31.3493C198.371 32.0661 196.815 32.4244 195.074 32.4244ZM195.074 28.4927C196.303 28.4927 197.306 28.0831 198.084 27.264C198.883 26.4244 199.282 25.3083 199.282 23.9158C199.282 22.5233 198.883 21.4175 198.084 20.5984C197.306 19.7588 196.303 19.339 195.074 19.339C193.845 19.339 192.832 19.7588 192.033 20.5984C191.234 21.4175 190.835 22.5233 190.835 23.9158C190.835 25.3083 191.234 26.4244 192.033 27.264C192.832 28.0831 193.845 28.4927 195.074 28.4927Z" fill="#60CAB7"/>
<path d="M14.1761 1L3.14874 27.9365C2.7445 28.9129 2.58843 29.9733 2.69433 31.0239C2.80023 32.0745 3.16484 33.083 3.75592 33.9602C4.34699 34.8374 5.14633 35.5562 6.08325 36.0532C7.02017 36.5502 8.06581 36.81 9.12772 36.8097H24.7955C25.6431 36.8114 26.4826 36.6466 27.266 36.3248C28.0494 36.0031 28.7612 35.5307 29.3605 34.9348C29.9599 34.3388 30.435 33.6311 30.7585 32.8522C31.0821 32.0732 31.2478 31.2384 31.2462 30.3956V30.3956C31.2478 29.5529 31.0821 28.718 30.7585 27.9391C30.435 27.1602 29.9599 26.4524 29.3605 25.8565C28.7612 25.2606 28.0494 24.7882 27.266 24.4664C26.4826 24.1447 25.6431 23.9799 24.7955 23.9816H11.4734" stroke="#60CAB7" stroke-width="3.8028" stroke-miterlimit="10"/>
<path d="M0 11.6851H24.7956C25.6438 11.6851 26.4836 11.8514 27.2671 12.1745C28.0506 12.4976 28.7622 12.9712 29.3614 13.5682C29.9606 14.1651 30.4355 14.8737 30.7589 15.6533C31.0823 16.433 31.2479 17.2684 31.2463 18.1118V20.0892" stroke="#60CAB7" stroke-width="3.8028" stroke-miterlimit="10"/>
</svg>
