<svg width="6244" height="1372" viewBox="0 0 6244 1372" fill="none" xmlns="http://www.w3.org/2000/svg">
<path d="M430.618 144.469C429.083 143.749 427.392 143.339 425.663 143.269C423.934 143.198 422.209 143.469 420.608 144.062C419.007 144.655 417.567 145.555 416.391 146.701C415.214 147.847 414.328 149.211 413.794 150.698C396.657 197.033 295.296 472.874 195.815 794.578C90.274 1135.91 9.39388 1308.98 4.27356 1319.93C4.21354 1320.31 4.21354 1320.69 4.27356 1321.06C1.34767 1330.5 -30.3147 1447.61 135.939 1291.15L138.342 1289.17C160.391 1269.25 295.087 1215.27 457.474 1226.22C476.986 1227.8 496.65 1225.82 515.301 1220.41C533.951 1215 551.207 1206.25 566.045 1194.7C611.606 1157.99 669.915 1082.31 719.969 926.6C819.762 616.409 832.406 552.427 832.406 552.427C832.406 552.427 820.912 516.095 778.8 598.479C736.688 680.863 747.451 738.428 590.707 740.787C463.221 742.675 362.696 782.215 301.356 842.611C299.587 844.315 297.252 845.452 294.704 845.851C292.156 846.25 289.533 845.89 287.232 844.824C284.931 843.758 283.076 842.045 281.949 839.944C280.821 837.842 280.48 835.466 280.98 833.175C322.778 684.826 435.843 281.304 444.098 213.547C449.532 164.947 440.023 149.093 430.618 144.469Z" fill="white"/>
<path d="M729.164 1245.57C727.468 1245.42 725.826 1244.95 724.35 1244.18C722.873 1243.41 721.597 1242.36 720.606 1241.11C719.616 1239.86 718.934 1238.43 718.608 1236.92C718.282 1235.41 718.318 1233.85 718.714 1232.35C730.627 1185.17 802.311 901.497 902.523 579.887C1008.27 238.366 1038.58 52.5529 1040.46 40.7568C1040.41 40.349 1040.41 39.9378 1040.46 39.53C1043.59 30.0931 1083.62 -84.754 1135.86 126.916C1135.86 127.576 1135.86 128.52 1136.59 129.747C1144.12 157.019 1228.24 266.393 1373.28 333.018C1390.86 340.835 1406.53 351.763 1419.35 365.153C1432.16 378.543 1441.87 394.123 1447.89 410.967C1465.76 463.719 1472.13 555.729 1425.42 712.193C1332.42 1024.18 1306.4 1084.76 1306.4 1084.76C1306.4 1084.76 1275.68 1110.43 1287.07 1020.31C1298.46 930.185 1340.68 886.02 1208.07 810.525C1100.23 749.091 1037.11 668.122 1019.45 587.814C1018.98 585.415 1017.63 583.23 1015.6 581.619C1013.58 580.007 1011.01 579.064 1008.31 578.943C1005.62 578.823 1002.96 579.532 1000.77 580.955C998.577 582.378 996.987 584.43 996.256 586.776C946.725 733.142 811.298 1131 779.427 1192.72C757.064 1236.7 739.823 1245.57 729.164 1245.57Z" fill="white"/>
<path d="M1683.05 408.877H1825.64V908.817H2134.58V1025H1683.05V408.877ZM2664.99 789.993C2664.99 791.753 2664.11 804.076 2662.35 826.961H2304.11C2310.57 856.3 2325.83 879.478 2349.88 896.494C2373.94 913.511 2403.87 922.019 2439.66 922.019C2464.31 922.019 2486.02 918.499 2504.79 911.457C2524.16 903.829 2542.06 892.093 2558.49 876.25L2631.54 955.466C2586.94 1006.52 2521.81 1032.04 2436.14 1032.04C2382.74 1032.04 2335.51 1021.77 2294.43 1001.24C2253.36 980.111 2221.67 951.065 2199.37 914.098C2177.08 877.131 2165.93 835.175 2165.93 788.233C2165.93 741.877 2176.78 700.215 2198.49 663.248C2220.79 625.694 2251.01 596.648 2289.15 576.11C2327.88 554.986 2371.01 544.424 2418.54 544.424C2464.89 544.424 2506.85 554.4 2544.4 574.35C2581.96 594.301 2611.3 623.053 2632.42 660.607C2654.13 697.575 2664.99 740.703 2664.99 789.993ZM2419.42 648.285C2388.32 648.285 2362.21 657.087 2341.08 674.69C2319.96 692.294 2307.05 716.352 2302.35 746.865H2535.6C2530.91 716.939 2518 693.174 2496.87 675.57C2475.75 657.38 2449.93 648.285 2419.42 648.285ZM2981.73 1032.04C2931.85 1032.04 2886.96 1021.77 2847.06 1001.24C2807.74 980.111 2776.94 951.065 2754.64 914.098C2732.34 877.131 2721.19 835.175 2721.19 788.233C2721.19 741.29 2732.34 699.335 2754.64 662.368C2776.94 625.4 2807.74 596.648 2847.06 576.11C2886.96 554.986 2931.85 544.424 2981.73 544.424C3031.6 544.424 3076.2 554.986 3115.51 576.11C3154.83 596.648 3185.63 625.4 3207.93 662.368C3230.23 699.335 3241.38 741.29 3241.38 788.233C3241.38 835.175 3230.23 877.131 3207.93 914.098C3185.63 951.065 3154.83 980.111 3115.51 1001.24C3076.2 1021.77 3031.6 1032.04 2981.73 1032.04ZM2981.73 919.379C3016.93 919.379 3045.69 907.643 3067.98 884.172C3090.87 860.114 3102.31 828.134 3102.31 788.233C3102.31 748.331 3090.87 716.645 3067.98 693.174C3045.69 669.116 3016.93 657.087 2981.73 657.087C2946.52 657.087 2917.47 669.116 2894.59 693.174C2871.7 716.645 2860.26 748.331 2860.26 788.233C2860.26 828.134 2871.7 860.114 2894.59 884.172C2917.47 907.643 2946.52 919.379 2981.73 919.379ZM3858.8 408.877C3913.37 408.877 3960.61 417.972 4000.51 436.163C4041 454.353 4072.1 480.171 4093.81 513.618C4115.52 547.065 4126.37 586.673 4126.37 632.442C4126.37 677.624 4115.52 717.232 4093.81 751.265C4072.1 784.712 4041 810.531 4000.51 828.721C3960.61 846.324 3913.37 855.126 3858.8 855.126H3734.7V1025H3592.11V408.877H3858.8ZM3850.88 738.943C3893.71 738.943 3926.28 729.848 3948.58 711.658C3970.88 692.88 3982.02 666.475 3982.02 632.442C3982.02 597.822 3970.88 571.416 3948.58 553.226C3926.28 534.449 3893.71 525.06 3850.88 525.06H3734.7V738.943H3850.88ZM4349.64 613.958C4366.07 591.073 4388.07 573.763 4415.65 562.028C4443.81 550.292 4476.09 544.424 4512.47 544.424V671.169C4497.21 669.996 4486.94 669.409 4481.66 669.409C4442.35 669.409 4411.54 680.558 4389.24 702.856C4366.95 724.567 4355.8 757.427 4355.8 801.435V1025H4218.49V551.466H4349.64V613.958ZM4815.14 1032.04C4765.26 1032.04 4720.37 1021.77 4680.47 1001.24C4641.16 980.111 4610.35 951.065 4588.05 914.098C4565.76 877.131 4554.61 835.175 4554.61 788.233C4554.61 741.29 4565.76 699.335 4588.05 662.368C4610.35 625.4 4641.16 596.648 4680.47 576.11C4720.37 554.986 4765.26 544.424 4815.14 544.424C4865.02 544.424 4909.61 554.986 4948.93 576.11C4988.24 596.648 5019.05 625.4 5041.34 662.368C5063.64 699.335 5074.79 741.29 5074.79 788.233C5074.79 835.175 5063.64 877.131 5041.34 914.098C5019.05 951.065 4988.24 980.111 4948.93 1001.24C4909.61 1021.77 4865.02 1032.04 4815.14 1032.04ZM4815.14 919.379C4850.35 919.379 4879.1 907.643 4901.4 884.172C4924.28 860.114 4935.72 828.134 4935.72 788.233C4935.72 748.331 4924.28 716.645 4901.4 693.174C4879.1 669.116 4850.35 657.087 4815.14 657.087C4779.93 657.087 4750.89 669.116 4728 693.174C4705.12 716.645 4693.67 748.331 4693.67 788.233C4693.67 828.134 4705.12 860.114 4728 884.172C4750.89 907.643 4779.93 919.379 4815.14 919.379ZM5369.89 839.283L5303.88 904.416V1025H5166.57V371.91H5303.88V741.583L5504.56 551.466H5668.27L5471.11 752.146L5685.87 1025H5519.52L5369.89 839.283ZM5952.32 1032.04C5902.44 1032.04 5857.55 1021.77 5817.65 1001.24C5778.34 980.111 5747.53 951.065 5725.23 914.098C5702.94 877.131 5691.79 835.175 5691.79 788.233C5691.79 741.29 5702.94 699.335 5725.23 662.368C5747.53 625.4 5778.34 596.648 5817.65 576.11C5857.55 554.986 5902.44 544.424 5952.32 544.424C6002.2 544.424 6046.79 554.986 6086.11 576.11C6125.42 596.648 6156.23 625.4 6178.52 662.368C6200.82 699.335 6211.97 741.29 6211.97 788.233C6211.97 835.175 6200.82 877.131 6178.52 914.098C6156.23 951.065 6125.42 980.111 6086.11 1001.24C6046.79 1021.77 6002.2 1032.04 5952.32 1032.04ZM5952.32 919.379C5987.53 919.379 6016.28 907.643 6038.58 884.172C6061.46 860.114 6072.9 828.134 6072.9 788.233C6072.9 748.331 6061.46 716.645 6038.58 693.174C6016.28 669.116 5987.53 657.087 5952.32 657.087C5917.11 657.087 5888.07 669.116 5865.18 693.174C5842.3 716.645 5830.85 748.331 5830.85 788.233C5830.85 828.134 5842.3 860.114 5865.18 884.172C5888.07 907.643 5917.11 919.379 5952.32 919.379Z" fill="white"/>
</svg>
