<svg xmlns="http://www.w3.org/2000/svg" viewBox="0 0 139.91 145.41"><defs><style>.cls-1{fill:#fff;}</style></defs><title>Ресурс 3</title><g id="Слой_2" data-name="Слой 2"><g id="Слой_1-2" data-name="Слой 1"><path class="cls-1" d="M41.25,15.32a1.14,1.14,0,0,0-1.61.66C38,20.89,28.3,50.12,18.78,84.21,8.68,120.38.94,138.72.45,139.88a.42.42,0,0,0,0,.12c-.28,1-3.31,13.41,12.6-3.17l.23-.21c2.11-2.11,15-7.83,30.54-6.67a14,14,0,0,0,10.39-3.34c4.36-3.89,9.94-11.91,14.73-28.41,9.55-32.87,10.76-39.65,10.76-39.65s-1.1-3.85-5.13,4.88-3,14.83-18,15.08c-12.2.2-21.82,4.39-27.69,10.79a1.14,1.14,0,0,1-1.95-1c4-15.72,14.82-58.48,15.61-65.66C43.06,17.49,42.15,15.81,41.25,15.32Z"/><path class="cls-1" d="M69.82,132a1.14,1.14,0,0,1-1-1.4c1.14-5,8-35.06,17.59-69.14C96.53,25.27,99.43,5.58,99.61,4.33a.61.61,0,0,1,0-.13c.3-1,4.13-13.17,9.13,9.26,0,.07,0,.17.07.3.72,2.89,8.77,14.48,22.65,21.54a14,14,0,0,1,7.14,8.26c1.71,5.59,2.32,15.34-2.15,31.92-8.9,33.06-11.39,39.48-11.39,39.48s-2.94,2.72-1.85-6.83,5.13-14.23-7.56-22.23c-10.32-6.51-16.36-15.09-18.05-23.6a1.14,1.14,0,0,0-2.22-.11c-4.74,15.51-17.7,57.67-20.75,64.21C72.49,131.06,70.84,132,69.82,132Z"/></g></g></svg>