<svg width="228" height="40" viewBox="0 0 228 40" fill="none" xmlns="http://www.w3.org/2000/svg">
<path d="M55.389 10.6765C57.2935 10.6765 58.942 10.9939 60.3345 11.6287C61.7475 12.2636 62.8328 13.1646 63.5905 14.3318C64.3482 15.4991 64.727 16.8814 64.727 18.4786C64.727 20.0555 64.3482 21.4377 63.5905 22.6255C62.8328 23.7927 61.7475 24.6937 60.3345 25.3286C58.942 25.9429 57.2935 26.2501 55.389 26.2501H51.0579V32.1785H46.0817V10.6765H55.389ZM55.1126 22.1954C56.6075 22.1954 57.744 21.878 58.5222 21.2432C59.3003 20.5879 59.6894 19.6664 59.6894 18.4786C59.6894 17.2704 59.3003 16.3489 58.5222 15.7141C57.744 15.0588 56.6075 14.7312 55.1126 14.7312H51.0579V22.1954H55.1126ZM72.5186 17.8336C73.092 17.0349 73.8599 16.4308 74.8224 16.0213C75.8053 15.6117 76.9316 15.4069 78.2013 15.4069V19.8302C77.6688 19.7892 77.3105 19.7688 77.1262 19.7688C75.7541 19.7688 74.679 20.1578 73.9009 20.936C73.1227 21.6937 72.7336 22.8405 72.7336 24.3763V32.1785H67.9417V15.6527H72.5186V17.8336ZM88.7641 32.4242C87.0235 32.4242 85.4569 32.0658 84.0644 31.3491C82.6923 30.6119 81.6173 29.5982 80.8391 28.3081C80.0609 27.018 79.6718 25.5538 79.6718 23.9156C79.6718 22.2773 80.0609 20.8131 80.8391 19.523C81.6173 18.2329 82.6923 17.2295 84.0644 16.5128C85.4569 15.7755 87.0235 15.4069 88.7641 15.4069C90.5047 15.4069 92.0611 15.7755 93.4331 16.5128C94.8051 17.2295 95.8802 18.2329 96.6584 19.523C97.4365 20.8131 97.8256 22.2773 97.8256 23.9156C97.8256 25.5538 97.4365 27.018 96.6584 28.3081C95.8802 29.5982 94.8051 30.6119 93.4331 31.3491C92.0611 32.0658 90.5047 32.4242 88.7641 32.4242ZM88.7641 28.4924C89.9928 28.4924 90.9962 28.0829 91.7744 27.2637C92.573 26.4241 92.9723 25.3081 92.9723 23.9156C92.9723 22.5231 92.573 21.4172 91.7744 20.5981C90.9962 19.7585 89.9928 19.3387 88.7641 19.3387C87.5354 19.3387 86.5217 19.7585 85.7231 20.5981C84.9245 21.4172 84.5251 22.5231 84.5251 23.9156C84.5251 25.3081 84.9245 26.4241 85.7231 27.2637C86.5217 28.0829 87.5354 28.4924 88.7641 28.4924ZM108.124 25.6972L105.82 27.9702V32.1785H101.029V9.38639H105.82V22.2876L112.824 15.6527H118.537L111.657 22.6562L119.152 32.1785H113.346L108.124 25.6972ZM128.45 32.4242C126.71 32.4242 125.143 32.0658 123.751 31.3491C122.379 30.6119 121.303 29.5982 120.525 28.3081C119.747 27.018 119.358 25.5538 119.358 23.9156C119.358 22.2773 119.747 20.8131 120.525 19.523C121.303 18.2329 122.379 17.2295 123.751 16.5128C125.143 15.7755 126.71 15.4069 128.45 15.4069C130.191 15.4069 131.747 15.7755 133.119 16.5128C134.491 17.2295 135.566 18.2329 136.345 19.523C137.123 20.8131 137.512 22.2773 137.512 23.9156C137.512 25.5538 137.123 27.018 136.345 28.3081C135.566 29.5982 134.491 30.6119 133.119 31.3491C131.747 32.0658 130.191 32.4242 128.45 32.4242ZM128.45 28.4924C129.679 28.4924 130.682 28.0829 131.461 27.2637C132.259 26.4241 132.659 25.3081 132.659 23.9156C132.659 22.5231 132.259 21.4172 131.461 20.5981C130.682 19.7585 129.679 19.3387 128.45 19.3387C127.222 19.3387 126.208 19.7585 125.409 20.5981C124.611 21.4172 124.211 22.5231 124.211 23.9156C124.211 25.3081 124.611 26.4241 125.409 27.2637C126.208 28.0829 127.222 28.4924 128.45 28.4924ZM149.752 10.6765H159.52C161.854 10.6765 163.912 11.127 165.694 12.0281C167.496 12.9086 168.889 14.1578 169.872 15.7755C170.875 17.3933 171.377 19.2773 171.377 21.4275C171.377 23.5777 170.875 25.4617 169.872 27.0794C168.889 28.6972 167.496 29.9566 165.694 30.8576C163.912 31.7382 161.854 32.1785 159.52 32.1785H149.752V10.6765ZM159.274 28.0931C161.424 28.0931 163.134 27.4992 164.404 26.3115C165.694 25.1033 166.339 23.4753 166.339 21.4275C166.339 19.3797 165.694 17.7619 164.404 16.5742C163.134 15.366 161.424 14.7619 159.274 14.7619H154.728V28.0931H159.274ZM182.655 32.4242C180.915 32.4242 179.348 32.0658 177.955 31.3491C176.583 30.6119 175.508 29.5982 174.73 28.3081C173.952 27.018 173.563 25.5538 173.563 23.9156C173.563 22.2773 173.952 20.8131 174.73 19.523C175.508 18.2329 176.583 17.2295 177.955 16.5128C179.348 15.7755 180.915 15.4069 182.655 15.4069C184.396 15.4069 185.952 15.7755 187.324 16.5128C188.696 17.2295 189.771 18.2329 190.549 19.523C191.328 20.8131 191.717 22.2773 191.717 23.9156C191.717 25.5538 191.328 27.018 190.549 28.3081C189.771 29.5982 188.696 30.6119 187.324 31.3491C185.952 32.0658 184.396 32.4242 182.655 32.4242ZM182.655 28.4924C183.884 28.4924 184.887 28.0829 185.665 27.2637C186.464 26.4241 186.863 25.3081 186.863 23.9156C186.863 22.5231 186.464 21.4172 185.665 20.5981C184.887 19.7585 183.884 19.3387 182.655 19.3387C181.426 19.3387 180.413 19.7585 179.614 20.5981C178.816 21.4172 178.416 22.5231 178.416 23.9156C178.416 25.3081 178.816 26.4241 179.614 27.2637C180.413 28.0829 181.426 28.4924 182.655 28.4924ZM202.906 32.4242C201.145 32.4242 199.558 32.0658 198.145 31.3491C196.752 30.6119 195.657 29.5982 194.858 28.3081C194.08 27.018 193.691 25.5538 193.691 23.9156C193.691 22.2773 194.08 20.8131 194.858 19.523C195.657 18.2329 196.752 17.2295 198.145 16.5128C199.558 15.7755 201.145 15.4069 202.906 15.4069C204.647 15.4069 206.162 15.7755 207.452 16.5128C208.763 17.2295 209.715 18.2636 210.309 19.6152L206.592 21.6118C205.732 20.0964 204.493 19.3387 202.875 19.3387C201.626 19.3387 200.592 19.7483 199.773 20.5674C198.954 21.3865 198.544 22.5026 198.544 23.9156C198.544 25.3286 198.954 26.4446 199.773 27.2637C200.592 28.0829 201.626 28.4924 202.875 28.4924C204.514 28.4924 205.753 27.7347 206.592 26.2194L210.309 28.2467C209.715 29.5573 208.763 30.5812 207.452 31.3184C206.162 32.0556 204.647 32.4242 202.906 32.4242ZM218.628 32.4242C217.256 32.4242 215.914 32.2604 214.604 31.9327C213.293 31.5846 212.249 31.1546 211.471 30.6426L213.068 27.2023C213.805 27.6733 214.696 28.0624 215.74 28.3695C216.785 28.6562 217.809 28.7996 218.812 28.7996C220.839 28.7996 221.853 28.2979 221.853 27.2945C221.853 26.8235 221.577 26.4856 221.024 26.2808C220.471 26.076 219.621 25.9019 218.474 25.7586C217.123 25.5538 216.007 25.3183 215.126 25.0521C214.245 24.7859 213.478 24.3149 212.822 23.6391C212.187 22.9633 211.87 22.0009 211.87 20.7517C211.87 19.7073 212.167 18.7858 212.761 17.9872C213.375 17.1681 214.256 16.5332 215.402 16.0827C216.57 15.6322 217.942 15.4069 219.519 15.4069C220.686 15.4069 221.843 15.54 222.99 15.8063C224.157 16.052 225.119 16.4001 225.877 16.8506L224.28 20.2602C222.826 19.4411 221.239 19.0316 219.519 19.0316C218.495 19.0316 217.727 19.1749 217.215 19.4616C216.703 19.7483 216.447 20.1169 216.447 20.5674C216.447 21.0794 216.723 21.4377 217.276 21.6425C217.829 21.8473 218.71 22.0418 219.918 22.2261C221.269 22.4514 222.375 22.6971 223.235 22.9633C224.095 23.2091 224.843 23.6698 225.478 24.3456C226.112 25.0214 226.43 25.9634 226.43 27.1716C226.43 28.1955 226.123 29.1068 225.508 29.9054C224.894 30.704 223.993 31.3286 222.805 31.7791C221.638 32.2092 220.246 32.4242 218.628 32.4242Z" fill="#568BD7"/>
<path d="M14.1761 1L3.14874 27.9365C2.7445 28.9129 2.58843 29.9733 2.69433 31.0239C2.80023 32.0745 3.16484 33.083 3.75592 33.9602C4.34699 34.8374 5.14633 35.5562 6.08325 36.0532C7.02017 36.5502 8.06581 36.81 9.12772 36.8097H24.7955C25.6431 36.8114 26.4826 36.6466 27.266 36.3248C28.0494 36.0031 28.7612 35.5307 29.3605 34.9348C29.9599 34.3388 30.435 33.6311 30.7585 32.8522C31.0821 32.0732 31.2478 31.2384 31.2462 30.3956V30.3956C31.2478 29.5529 31.0821 28.718 30.7585 27.9391C30.435 27.1602 29.9599 26.4524 29.3605 25.8565C28.7612 25.2606 28.0494 24.7882 27.266 24.4664C26.4826 24.1447 25.6431 23.9799 24.7955 23.9816H11.4734" stroke="#568BD7" stroke-width="3.8028" stroke-miterlimit="10"/>
<path d="M0 11.6853H24.7956C25.6438 11.6853 26.4836 11.8516 27.2671 12.1748C28.0506 12.4979 28.7622 12.9715 29.3614 13.5684C29.9606 14.1654 30.4355 14.8739 30.7589 15.6536C31.0823 16.4332 31.2479 17.2687 31.2463 18.112V20.0895" stroke="#568BD7" stroke-width="3.8028" stroke-miterlimit="10"/>
</svg>
