<svg width="223" height="40" viewBox="0 0 223 40" fill="none" xmlns="http://www.w3.org/2000/svg">
<path d="M55.389 10.6765C57.2935 10.6765 58.942 10.9939 60.3345 11.6287C61.7475 12.2636 62.8328 13.1646 63.5905 14.3318C64.3482 15.4991 64.727 16.8814 64.727 18.4786C64.727 20.0555 64.3482 21.4377 63.5905 22.6255C62.8328 23.7927 61.7475 24.6937 60.3345 25.3286C58.942 25.9429 57.2935 26.2501 55.389 26.2501H51.0579V32.1785H46.0817V10.6765H55.389ZM55.1126 22.1954C56.6075 22.1954 57.744 21.878 58.5222 21.2432C59.3003 20.5879 59.6894 19.6664 59.6894 18.4786C59.6894 17.2704 59.3003 16.3489 58.5222 15.7141C57.744 15.0588 56.6075 14.7312 55.1126 14.7312H51.0579V22.1954H55.1126ZM72.5186 17.8336C73.092 17.0349 73.8599 16.4308 74.8224 16.0213C75.8053 15.6117 76.9316 15.4069 78.2013 15.4069V19.8302C77.6688 19.7892 77.3105 19.7688 77.1262 19.7688C75.7541 19.7688 74.679 20.1578 73.9009 20.936C73.1227 21.6937 72.7336 22.8405 72.7336 24.3763V32.1785H67.9417V15.6527H72.5186V17.8336ZM88.7641 32.4242C87.0235 32.4242 85.4569 32.0658 84.0644 31.3491C82.6923 30.6119 81.6173 29.5982 80.8391 28.3081C80.0609 27.018 79.6718 25.5538 79.6718 23.9156C79.6718 22.2773 80.0609 20.8131 80.8391 19.523C81.6173 18.2329 82.6923 17.2295 84.0644 16.5128C85.4569 15.7755 87.0235 15.4069 88.7641 15.4069C90.5047 15.4069 92.0611 15.7755 93.4331 16.5128C94.8051 17.2295 95.8802 18.2329 96.6584 19.523C97.4365 20.8131 97.8256 22.2773 97.8256 23.9156C97.8256 25.5538 97.4365 27.018 96.6584 28.3081C95.8802 29.5982 94.8051 30.6119 93.4331 31.3491C92.0611 32.0658 90.5047 32.4242 88.7641 32.4242ZM88.7641 28.4924C89.9928 28.4924 90.9962 28.0829 91.7744 27.2637C92.573 26.4241 92.9723 25.3081 92.9723 23.9156C92.9723 22.5231 92.573 21.4172 91.7744 20.5981C90.9962 19.7585 89.9928 19.3387 88.7641 19.3387C87.5354 19.3387 86.5217 19.7585 85.7231 20.5981C84.9245 21.4172 84.5251 22.5231 84.5251 23.9156C84.5251 25.3081 84.9245 26.4241 85.7231 27.2637C86.5217 28.0829 87.5354 28.4924 88.7641 28.4924ZM108.124 25.6972L105.82 27.9702V32.1785H101.029V9.38639H105.82V22.2876L112.824 15.6527H118.537L111.657 22.6562L119.152 32.1785H113.346L108.124 25.6972ZM128.45 32.4242C126.71 32.4242 125.143 32.0658 123.751 31.3491C122.379 30.6119 121.303 29.5982 120.525 28.3081C119.747 27.018 119.358 25.5538 119.358 23.9156C119.358 22.2773 119.747 20.8131 120.525 19.523C121.303 18.2329 122.379 17.2295 123.751 16.5128C125.143 15.7755 126.71 15.4069 128.45 15.4069C130.191 15.4069 131.747 15.7755 133.119 16.5128C134.491 17.2295 135.566 18.2329 136.345 19.523C137.123 20.8131 137.512 22.2773 137.512 23.9156C137.512 25.5538 137.123 27.018 136.345 28.3081C135.566 29.5982 134.491 30.6119 133.119 31.3491C131.747 32.0658 130.191 32.4242 128.45 32.4242ZM128.45 28.4924C129.679 28.4924 130.682 28.0829 131.461 27.2637C132.259 26.4241 132.659 25.3081 132.659 23.9156C132.659 22.5231 132.259 21.4172 131.461 20.5981C130.682 19.7585 129.679 19.3387 128.45 19.3387C127.222 19.3387 126.208 19.7585 125.409 20.5981C124.611 21.4172 124.211 22.5231 124.211 23.9156C124.211 25.3081 124.611 26.4241 125.409 27.2637C126.208 28.0829 127.222 28.4924 128.45 28.4924ZM160.042 32.5471C157.851 32.5471 155.865 32.0761 154.083 31.1341C152.322 30.1716 150.929 28.8508 149.905 27.1716C148.902 25.4719 148.4 23.5572 148.4 21.4275C148.4 19.2978 148.902 17.3933 149.905 15.7141C150.929 14.0144 152.322 12.6936 154.083 11.7516C155.865 10.7891 157.861 10.3079 160.073 10.3079C161.936 10.3079 163.616 10.6356 165.11 11.2909C166.626 11.9461 167.895 12.8881 168.919 14.1168L165.725 17.0657C164.271 15.3865 162.469 14.5469 160.319 14.5469C158.987 14.5469 157.8 14.8438 156.755 15.4377C155.711 16.011 154.892 16.8199 154.298 17.8643C153.725 18.9087 153.438 20.0964 153.438 21.4275C153.438 22.7586 153.725 23.9463 154.298 24.9907C154.892 26.035 155.711 26.8542 156.755 27.448C157.8 28.0214 158.987 28.3081 160.319 28.3081C162.469 28.3081 164.271 27.4583 165.725 25.7586L168.919 28.7074C167.895 29.9566 166.626 30.9088 165.11 31.5641C163.595 32.2194 161.906 32.5471 160.042 32.5471ZM185.98 32.1785L181.833 26.1886H181.587H177.256V32.1785H172.28V10.6765H181.587C183.491 10.6765 185.14 10.9939 186.532 11.6287C187.945 12.2636 189.031 13.1646 189.788 14.3318C190.546 15.4991 190.925 16.8814 190.925 18.4786C190.925 20.0759 190.536 21.4582 189.758 22.6255C189 23.7722 187.915 24.6528 186.502 25.2671L191.324 32.1785H185.98ZM185.887 18.4786C185.887 17.2704 185.498 16.3489 184.72 15.7141C183.942 15.0588 182.805 14.7312 181.311 14.7312H177.256V22.2261H181.311C182.805 22.2261 183.942 21.8985 184.72 21.2432C185.498 20.5879 185.887 19.6664 185.887 18.4786ZM214.434 32.1785L214.404 19.2773L208.076 29.9054H205.834L199.537 19.5537V32.1785H194.868V10.6765H198.984L207.032 24.0384L214.957 10.6765H219.042L219.103 32.1785H214.434Z" fill="#568BD7"/>
<path d="M14.1761 1L3.14874 27.9365C2.7445 28.9129 2.58843 29.9733 2.69433 31.0239C2.80023 32.0745 3.16484 33.083 3.75592 33.9602C4.34699 34.8374 5.14633 35.5562 6.08325 36.0532C7.02017 36.5502 8.06581 36.81 9.12772 36.8097H24.7955C25.6431 36.8114 26.4826 36.6466 27.266 36.3248C28.0494 36.0031 28.7612 35.5307 29.3605 34.9348C29.9599 34.3388 30.435 33.6311 30.7585 32.8522C31.0821 32.0732 31.2478 31.2384 31.2462 30.3956V30.3956C31.2478 29.5529 31.0821 28.718 30.7585 27.9391C30.435 27.1602 29.9599 26.4524 29.3605 25.8565C28.7612 25.2606 28.0494 24.7882 27.266 24.4664C26.4826 24.1447 25.6431 23.9799 24.7955 23.9816H11.4734" stroke="#568BD7" stroke-width="3.8028" stroke-miterlimit="10"/>
<path d="M0 11.6853H24.7956C25.6438 11.6853 26.4836 11.8516 27.2671 12.1748C28.0506 12.4979 28.7622 12.9715 29.3614 13.5684C29.9606 14.1654 30.4355 14.8739 30.7589 15.6536C31.0823 16.4332 31.2479 17.2687 31.2463 18.112V20.0895" stroke="#568BD7" stroke-width="3.8028" stroke-miterlimit="10"/>
</svg>
