<svg width="40" height="38" viewBox="0 0 40 38" fill="none" xmlns="http://www.w3.org/2000/svg">
<path d="M31.1369 0H8.84369C4.44715 0 0.881836 3.54508 0.881836 7.91667V30.0833C0.881836 34.4549 4.44715 38 8.84369 38H31.1369C35.535 38 39.0987 34.4549 39.0987 30.0833V7.91667C39.0987 3.54508 35.535 0 31.1369 0ZM31.535 26.9103H28.1369C26.218 26.9103 25.8932 25.8226 24.3136 24.2519C22.8852 22.8317 22.0922 23.921 22.1257 25.9429C22.1352 26.4797 21.8693 26.9103 21.2244 26.9103C19.2116 26.9103 16.3199 27.1922 13.3931 24.0508C10.3947 20.8319 7.25132 14.3751 7.25132 13.7386C7.25132 13.3633 7.56342 13.1939 8.08572 13.1939H11.5412C12.4552 13.1939 12.5332 13.6436 12.788 14.2215C13.8501 16.6298 16.3947 21.4637 17.0715 18.7657C17.46 17.2172 17.6192 13.6277 15.952 13.319C15.0062 13.1448 16.6718 12.1378 19.0858 12.1378C19.6861 12.1378 20.3374 12.2028 21.0046 12.3548C22.2292 12.6382 22.2323 13.1828 22.2164 13.9793C22.1543 16.9923 21.7881 19.0206 22.5874 19.532C23.3502 20.0228 25.3566 16.8134 26.4139 14.3371C26.7053 13.6515 26.7626 13.1939 27.5827 13.1939H31.8089C34.0223 13.1939 31.5191 16.3558 29.6066 18.8258C28.0652 20.8129 28.148 20.8525 29.9394 22.5055C31.2181 23.6835 32.7261 25.2922 32.7261 26.2042C32.7293 26.6348 32.3917 26.9103 31.535 26.9103Z" fill="#568BD7"/>
</svg>
