<svg width="225" height="225" viewBox="0 0 225 225" fill="none" xmlns="http://www.w3.org/2000/svg">
<circle cx="112.288" cy="112.523" r="107.022" stroke="#373737" stroke-width="10.1926"/>
<path d="M14.7292 112.523H209.845" stroke="#373737" stroke-width="2.91217"/>
<path d="M22.0098 103.786L13.2733 112.523L22.0098 121.259" stroke="#373737" stroke-width="2.91217"/>
<path d="M202.565 103.786L211.301 112.523L202.565 121.259" stroke="#373737" stroke-width="2.91217"/>
<path d="M65.4711 84.6864H63.8723L57.2937 101.801H54.83V105.785H57.084V103.033H73.0718V105.785H75.2997V101.801H72.7311L65.4711 84.6864ZM70.215 101.801H58.5255L64.0295 87.5432H64.1344L70.215 101.801ZM80.4058 101.487V89.9283H78.178V103.033H80.799L87.4824 91.5533V103.033H89.7102V89.9283H87.0892L80.4058 101.487ZM98.716 89.64C99.9916 89.64 100.979 89.8235 101.678 90.1904C102.377 90.5399 102.883 91.0029 103.198 91.5795C103.53 92.1561 103.722 92.8201 103.774 93.5714C103.827 94.3228 103.853 95.0916 103.853 95.8779V103.033H101.73V101.749C101.223 102.238 100.577 102.631 99.7906 102.928C99.0044 103.208 98.2181 103.348 97.4318 103.348C96.6804 103.348 96.0165 103.217 95.4399 102.954C94.8632 102.692 94.3827 102.352 93.9983 101.932C93.6139 101.513 93.3256 101.041 93.1334 100.517C92.9412 99.9928 92.8451 99.4598 92.8451 98.9182C92.8451 98.359 92.9499 97.7999 93.1596 97.2408C93.3693 96.6816 93.6838 96.1836 94.1032 95.7468C94.5225 95.2925 95.038 94.9256 95.6495 94.646C96.2611 94.3665 96.96 94.2267 97.7463 94.2267C98.5326 94.2267 99.2752 94.3839 99.9741 94.6984C100.691 94.9955 101.276 95.4236 101.73 95.9827V94.8557C101.73 93.4229 101.512 92.3571 101.075 91.6581C100.656 90.9592 99.878 90.6097 98.7423 90.6097C98.253 90.6097 97.8249 90.6709 97.458 90.7932C97.0911 90.9155 96.7591 91.0903 96.462 91.3174C96.1825 91.5271 95.9204 91.7979 95.6757 92.1299C95.4311 92.4444 95.1865 92.8026 94.9419 93.2045L93.579 91.8416C93.8236 91.5795 94.077 91.3174 94.3391 91.0553C94.6186 90.7932 94.9506 90.5573 95.335 90.3477C95.7369 90.138 96.2087 89.972 96.7503 89.8497C97.292 89.7099 97.9472 89.64 98.716 89.64ZM101.73 97.8436C101.643 97.6339 101.512 97.3893 101.337 97.1097C101.18 96.8302 100.97 96.5593 100.708 96.2972C100.446 96.0351 100.131 95.8167 99.7644 95.642C99.3975 95.4498 98.9607 95.3537 98.454 95.3537C97.9472 95.3537 97.4842 95.4585 97.0648 95.6682C96.6455 95.8604 96.2873 96.1225 95.9903 96.4545C95.7107 96.769 95.4923 97.1447 95.335 97.5815C95.1778 98.0183 95.0991 98.4726 95.0991 98.9444C95.0991 99.5035 95.1952 99.9928 95.3874 100.412C95.5971 100.814 95.8592 101.163 96.1737 101.461C96.4882 101.74 96.8377 101.95 97.2221 102.09C97.6065 102.229 97.9734 102.299 98.3229 102.299C98.6549 102.299 98.9869 102.238 99.3189 102.116C99.6683 101.993 99.9916 101.827 100.289 101.618C100.603 101.391 100.883 101.129 101.127 100.831C101.372 100.534 101.573 100.211 101.73 99.8617V97.8436ZM110.118 89.9283H108.048V103.033H108.939V92.6803H109.044L114.233 103.348H114.495L119.344 92.6803H119.449V103.033H121.677V89.9283H119.659L115.098 99.9404H114.967L110.118 89.9283ZM137.499 97.0573V96.5069C137.499 95.3362 137.333 94.3228 137.001 93.4666C136.669 92.6104 136.215 91.9028 135.638 91.3436C135.079 90.7845 134.424 90.3651 133.672 90.0856C132.921 89.806 132.126 89.6662 131.287 89.6662C130.396 89.6662 129.575 89.8235 128.824 90.138C128.072 90.435 127.417 90.8806 126.858 91.4747C126.299 92.0513 125.862 92.7589 125.547 93.5976C125.233 94.4189 125.076 95.3537 125.076 96.4021C125.076 97.2757 125.207 98.1319 125.469 98.9706C125.748 99.7918 126.159 100.534 126.701 101.198C127.26 101.845 127.959 102.369 128.797 102.771C129.654 103.155 130.658 103.348 131.812 103.348C132.93 103.348 133.961 103.155 134.904 102.771C135.848 102.369 136.669 101.801 137.368 101.067L136.529 100.229C136.162 100.543 135.813 100.831 135.481 101.094C135.166 101.356 134.843 101.574 134.511 101.749C134.179 101.924 133.83 102.063 133.463 102.168C133.113 102.256 132.72 102.299 132.283 102.299C131.794 102.299 131.27 102.229 130.711 102.09C130.169 101.932 129.662 101.661 129.191 101.277C128.719 100.893 128.326 100.36 128.011 99.6783C127.697 98.9968 127.539 98.1232 127.539 97.0573H137.499ZM127.539 96.0089C127.539 95.31 127.609 94.6373 127.749 93.9908C127.906 93.3268 128.133 92.7415 128.431 92.2347C128.745 91.728 129.138 91.3261 129.61 91.0291C130.082 90.7146 130.641 90.5573 131.287 90.5573C132.528 90.5573 133.489 91.0466 134.17 92.0251C134.869 92.9861 135.219 94.314 135.219 96.0089H127.539ZM144.581 103.033H146.809V90.9767H152.051V89.9283H139.339V90.9767H144.581V103.033ZM154.682 109.585H156.91V100.884H157.015C157.19 101.338 157.417 101.723 157.696 102.037C157.993 102.352 158.325 102.605 158.692 102.797C159.059 102.989 159.444 103.129 159.846 103.217C160.265 103.304 160.684 103.348 161.104 103.348C161.977 103.348 162.781 103.19 163.515 102.876C164.249 102.544 164.878 102.081 165.402 101.487C165.944 100.893 166.363 100.176 166.66 99.3375C166.957 98.4814 167.106 97.5378 167.106 96.5069C167.106 95.4585 166.957 94.515 166.66 93.6763C166.363 92.8376 165.944 92.1212 165.402 91.5271C164.878 90.9155 164.249 90.4525 163.515 90.138C162.781 89.806 161.977 89.64 161.104 89.64C159.024 89.64 157.661 90.4438 157.015 92.0513H156.91V89.9283H154.682V109.585ZM156.91 95.1702C156.91 94.5936 156.997 94.0519 157.172 93.5452C157.364 93.021 157.626 92.5755 157.958 92.2085C158.29 91.8241 158.675 91.5271 159.112 91.3174C159.566 91.0903 160.046 90.9767 160.553 90.9767C161.095 90.9767 161.61 91.0815 162.1 91.2912C162.606 91.4834 163.043 91.7979 163.41 92.2347C163.777 92.6716 164.065 93.2394 164.275 93.9384C164.502 94.6373 164.616 95.476 164.616 96.4545C164.616 97.4504 164.502 98.2979 164.275 98.9968C164.065 99.6957 163.768 100.272 163.384 100.727C163.017 101.163 162.589 101.487 162.1 101.696C161.61 101.889 161.095 101.985 160.553 101.985C160.064 101.985 159.601 101.889 159.164 101.696C158.727 101.487 158.343 101.19 158.011 100.805C157.679 100.403 157.408 99.9229 157.198 99.3637C157.006 98.8046 156.91 98.1668 156.91 97.4504V95.1702Z" fill="#373737"/>
</svg>
